<svg width="14" height="24" viewBox="0 0 14 24" fill="none" xmlns="http://www.w3.org/2000/svg">
<g clip-path="url(#clip0_20_61)">
<path d="M10.756 2.66667C10.8974 2.66667 11.0331 2.61047 11.1331 2.51046C11.2331 2.41044 11.2893 2.27478 11.2893 2.13333C11.2893 1.99188 11.2331 1.85623 11.1331 1.75621C11.0331 1.65619 10.8974 1.6 10.756 1.6H3.28931C3.14787 1.6 3.01221 1.65619 2.91219 1.75621C2.81217 1.85623 2.75598 1.99188 2.75598 2.13333C2.75598 2.27478 2.81217 2.41044 2.91219 2.51046C3.01221 2.61047 3.14787 2.66667 3.28931 2.66667H10.756ZM4.38265 6.77493C4.43218 6.82452 4.491 6.86386 4.55575 6.8907C4.62049 6.91754 4.68989 6.93135 4.75998 6.93135C4.83007 6.93135 4.89947 6.91754 4.96422 6.8907C5.02896 6.86386 5.08778 6.82452 5.13732 6.77493L6.48932 5.4224V10.6667C6.48932 10.8081 6.54551 10.9438 6.64552 11.0438C6.74554 11.1438 6.8812 11.2 7.02265 11.2C7.1641 11.2 7.29975 11.1438 7.39977 11.0438C7.49979 10.9438 7.55598 10.8081 7.55598 10.6667V5.4224L8.90852 6.77493C9.00859 6.87494 9.14429 6.93109 9.28577 6.93104C9.42725 6.93099 9.56291 6.87474 9.66292 6.77467C9.76292 6.67459 9.81907 6.53889 9.81902 6.39741C9.81897 6.25593 9.76272 6.12027 9.66265 6.02027L7.39971 3.75787C7.2997 3.65788 7.16407 3.60171 7.02265 3.60171C6.88123 3.60171 6.7456 3.65788 6.64558 3.75787L4.38265 6.02027C4.33306 6.0698 4.29372 6.12862 4.26688 6.19336C4.24004 6.25811 4.22623 6.32751 4.22623 6.3976C4.22623 6.46769 4.24004 6.53709 4.26688 6.60183C4.29372 6.66658 4.33306 6.7254 4.38265 6.77493Z" fill="black"/>
</g>
<g clip-path="url(#clip1_20_61)">
<path d="M3.28931 21.3333C3.14787 21.3333 3.01221 21.3895 2.91219 21.4895C2.81217 21.5896 2.75598 21.7252 2.75598 21.8667C2.75598 22.0081 2.81217 22.1438 2.91219 22.2438C3.01221 22.3438 3.14787 22.4 3.28931 22.4H10.756C10.8974 22.4 11.0331 22.3438 11.1331 22.2438C11.2331 22.1438 11.2893 22.0081 11.2893 21.8667C11.2893 21.7252 11.2331 21.5896 11.1331 21.4895C11.0331 21.3895 10.8974 21.3333 10.756 21.3333H3.28931ZM9.66265 17.2251C9.61312 17.1755 9.5543 17.1361 9.48955 17.1093C9.4248 17.0825 9.3554 17.0686 9.28532 17.0686C9.21523 17.0686 9.14583 17.0825 9.08108 17.1093C9.01634 17.1361 8.95751 17.1755 8.90798 17.2251L7.55598 18.5776V13.3333C7.55598 13.1919 7.49979 13.0562 7.39977 12.9562C7.29975 12.8562 7.1641 12.8 7.02265 12.8C6.8812 12.8 6.74554 12.8562 6.64552 12.9562C6.54551 13.0562 6.48932 13.1919 6.48932 13.3333V18.5776L5.13678 17.2251C5.03671 17.1251 4.901 17.0689 4.75953 17.069C4.61805 17.069 4.48239 17.1253 4.38238 17.2253C4.28238 17.3254 4.22622 17.4611 4.22627 17.6026C4.22632 17.7441 4.28257 17.8797 4.38265 17.9797L6.64558 20.2421C6.7456 20.3421 6.88123 20.3983 7.02265 20.3983C7.16407 20.3983 7.2997 20.3421 7.39971 20.2421L9.66265 17.9797C9.71224 17.9302 9.75157 17.8714 9.77841 17.8066C9.80525 17.7419 9.81907 17.6725 9.81907 17.6024C9.81907 17.5323 9.80525 17.4629 9.77841 17.3982C9.75157 17.3334 9.71224 17.2746 9.66265 17.2251Z" fill="black"/>
</g>
<defs>
<clipPath id="clip0_20_61">
<rect width="12.8" height="12.8" fill="white" transform="translate(0.62262)"/>
</clipPath>
<clipPath id="clip1_20_61">
<rect width="12.8" height="12.8" fill="white" transform="translate(0.62262 11.2)"/>
</clipPath>
</defs>
</svg>
