<svg width="26" height="14" viewBox="0 0 26 14" fill="none" xmlns="http://www.w3.org/2000/svg">
<g clip-path="url(#clip0_20_60)">
<path d="M22.3094 10.3012C22.3094 10.445 22.3665 10.5829 22.4682 10.6846C22.5699 10.7863 22.7078 10.8434 22.8516 10.8434C22.9954 10.8434 23.1333 10.7863 23.2349 10.6846C23.3366 10.5829 23.3937 10.445 23.3937 10.3012V2.71085C23.3937 2.56705 23.3366 2.42915 23.2349 2.32748C23.1333 2.2258 22.9954 2.16868 22.8516 2.16868C22.7078 2.16868 22.5699 2.2258 22.4682 2.32748C22.3665 2.42915 22.3094 2.56705 22.3094 2.71085V10.3012ZM18.1331 3.82229C18.0827 3.87265 18.0427 3.93244 18.0154 3.99826C17.9881 4.06408 17.9741 4.13463 17.9741 4.20588C17.9741 4.27713 17.9881 4.34768 18.0154 4.4135C18.0427 4.47931 18.0827 4.53911 18.1331 4.58946L19.508 5.96386H14.1769C14.0331 5.96386 13.8952 6.02098 13.7935 6.12266C13.6918 6.22433 13.6347 6.36224 13.6347 6.50603C13.6347 6.64982 13.6918 6.78772 13.7935 6.8894C13.8952 6.99108 14.0331 7.0482 14.1769 7.0482H19.508L18.1331 8.42314C18.0314 8.52487 17.9743 8.66282 17.9744 8.80664C17.9744 8.95046 18.0316 9.08837 18.1333 9.19003C18.2351 9.2917 18.373 9.34878 18.5169 9.34873C18.6607 9.34868 18.7986 9.2915 18.9002 9.18976L21.2001 6.88934C21.3018 6.78767 21.3589 6.64979 21.3589 6.50603C21.3589 6.36226 21.3018 6.22439 21.2001 6.12271L18.9002 3.82229C18.8499 3.77188 18.7901 3.73189 18.7243 3.70461C18.6585 3.67733 18.5879 3.66328 18.5167 3.66328C18.4454 3.66328 18.3749 3.67733 18.309 3.70461C18.2432 3.73189 18.1834 3.77188 18.1331 3.82229Z" fill="black"/>
</g>
<g clip-path="url(#clip1_20_60)">
<path d="M3.33348 3.25301C3.33348 3.10922 3.27636 2.97132 3.17469 2.86964C3.07301 2.76797 2.93511 2.71085 2.79131 2.71085C2.64752 2.71085 2.50962 2.76797 2.40794 2.86964C2.30627 2.97132 2.24915 3.10922 2.24915 3.25301V9.75904C2.24915 9.90283 2.30627 10.0407 2.40794 10.1424C2.50962 10.2441 2.64752 10.3012 2.79131 10.3012C2.93511 10.3012 3.07301 10.2441 3.17469 10.1424C3.27636 10.0407 3.33348 9.90283 3.33348 9.75904V3.25301ZM7.50981 9.18976C7.56022 9.13941 7.60021 9.07961 7.62749 9.0138C7.65478 8.94798 7.66882 8.87743 7.66882 8.80618C7.66882 8.73493 7.65478 8.66438 7.62749 8.59856C7.60021 8.53274 7.56022 8.47295 7.50981 8.42259L6.13487 7.0482H11.466C11.6098 7.0482 11.7477 6.99107 11.8494 6.8894C11.9511 6.78772 12.0082 6.64982 12.0082 6.50603C12.0082 6.36223 11.9511 6.22433 11.8494 6.12266C11.7477 6.02098 11.6098 5.96386 11.466 5.96386H6.13487L7.50981 4.58892C7.61147 4.48719 7.66855 4.34923 7.6685 4.20541C7.66845 4.06159 7.61127 3.92368 7.50954 3.82202C7.4078 3.72036 7.26985 3.66328 7.12603 3.66333C6.98221 3.66338 6.8443 3.72056 6.74264 3.82229L4.44276 6.12271C4.34112 6.22439 4.28402 6.36226 4.28402 6.50603C4.28402 6.64979 4.34112 6.78767 4.44276 6.88934L6.74264 9.18976C6.79299 9.24017 6.85279 9.28016 6.91861 9.30744C6.98442 9.33473 7.05497 9.34877 7.12622 9.34877C7.19747 9.34877 7.26802 9.33473 7.33384 9.30744C7.39966 9.28016 7.45946 9.24017 7.50981 9.18976Z" fill="black"/>
</g>
<defs>
<clipPath id="clip0_20_60">
<rect width="13.012" height="13.012" fill="white" transform="translate(12.0082)"/>
</clipPath>
<clipPath id="clip1_20_60">
<rect width="13.012" height="13.012" fill="white" transform="translate(0.62262)"/>
</clipPath>
</defs>
</svg>
