<svg width="31" height="31" viewBox="0 0 31 31" fill="none" xmlns="http://www.w3.org/2000/svg">
<g id="material-symbols:contrast">
<path id="Vector" d="M15.8113 28.3113C14.0821 28.3113 12.4571 27.983 10.9363 27.3263C9.41545 26.6697 8.09253 25.7792 6.96753 24.6551C5.84253 23.5309 4.95211 22.208 4.29628 20.6863C3.64045 19.1647 3.31211 17.5397 3.31128 15.8113C3.31045 14.083 3.63878 12.458 4.29628 10.9363C4.95378 9.41466 5.8442 8.09174 6.96753 6.96757C8.09086 5.8434 9.41378 4.95299 10.9363 4.29632C12.4588 3.63965 14.0838 3.31132 15.8113 3.31132C17.5388 3.31132 19.1638 3.63965 20.6863 4.29632C22.2088 4.95299 23.5317 5.8434 24.655 6.96757C25.7784 8.09174 26.6692 9.41466 27.3275 10.9363C27.9859 12.458 28.3138 14.083 28.3113 15.8113C28.3088 17.5397 27.9804 19.1647 27.3263 20.6863C26.6721 22.208 25.7817 23.5309 24.655 24.6551C23.5284 25.7792 22.2054 26.6701 20.6863 27.3276C19.1671 27.9851 17.5421 28.313 15.8113 28.3113ZM17.0613 25.7176C19.5404 25.4051 21.6188 24.3163 23.2963 22.4513C24.9738 20.5863 25.8121 18.373 25.8113 15.8113C25.8104 13.2497 24.9717 11.0363 23.295 9.17132C21.6184 7.30632 19.5404 6.21757 17.0613 5.90507V25.7176Z" fill="black"/>
</g>
</svg>
