<svg width="23" height="23" viewBox="0 0 23 23" fill="none" xmlns="http://www.w3.org/2000/svg">
<path id="Vector" d="M16.9153 21.81V18.81H6.91529C6.36529 18.81 5.89462 18.6143 5.50329 18.223C5.11195 17.8317 4.91595 17.3607 4.91529 16.81V6.81H1.91529C1.63195 6.81 1.39462 6.714 1.20329 6.522C1.01195 6.33 0.915953 6.09267 0.915287 5.81C0.91462 5.52733 1.01062 5.29 1.20329 5.098C1.39595 4.906 1.63329 4.81 1.91529 4.81H4.91529V1.81C4.91529 1.52667 5.01129 1.28933 5.20329 1.098C5.39529 0.906668 5.63262 0.810668 5.91529 0.810001C6.19795 0.809334 6.43562 0.905334 6.62829 1.098C6.82095 1.29067 6.91662 1.528 6.91529 1.81V16.81H21.9153C22.1986 16.81 22.4363 16.906 22.6283 17.098C22.8203 17.29 22.916 17.5273 22.9153 17.81C22.9146 18.0927 22.8186 18.3303 22.6273 18.523C22.436 18.7157 22.1986 18.8113 21.9153 18.81H18.9153V21.81C18.9153 22.0933 18.8193 22.331 18.6273 22.523C18.4353 22.715 18.198 22.8107 17.9153 22.81C17.6326 22.8093 17.3953 22.7133 17.2033 22.522C17.0113 22.3307 16.9153 22.0933 16.9153 21.81ZM16.9153 14.81V6.81H8.91529V4.81H16.9153C17.4653 4.81 17.9363 5.006 18.3283 5.398C18.7203 5.79 18.916 6.26067 18.9153 6.81V14.81H16.9153Z" fill="black"/>
</svg>
