<svg width="38" height="38" viewBox="0 0 38 38" fill="none" xmlns="http://www.w3.org/2000/svg">
<path id="Vector" d="M18.9056 37.4906H3.05655C2.35598 37.4906 1.6841 37.1909 1.18872 36.6574C0.69334 36.1239 0.415039 35.4003 0.415039 34.6459V17.5777C0.415039 16.8232 0.69334 16.0996 1.18872 15.5661C1.6841 15.0327 2.35598 14.7329 3.05655 14.7329H18.9056C19.6062 14.7329 20.2781 15.0327 20.7734 15.5661C21.2688 16.0996 21.5471 16.8232 21.5471 17.5777V34.6459C21.5471 35.4003 21.2688 36.1239 20.7734 36.6574C20.2781 37.1909 19.6062 37.4906 18.9056 37.4906ZM3.05655 17.5777V34.6459H18.9069L18.9056 17.5777H3.05655ZM37.3962 16.1553L35.5339 14.1498L32.1132 17.8195V10.4659C32.1097 7.82643 31.1345 5.29616 29.4014 3.42977C27.6683 1.56339 25.3188 0.5132 22.8679 0.509438H16.2641V3.35414H22.8679C24.6187 3.3564 26.2971 4.1064 27.5351 5.43962C28.7731 6.77284 29.4695 8.58043 29.4716 10.4659V17.8195L26.0509 14.1498L24.1886 16.1553L30.7924 23.2671L37.3962 16.1553Z" fill="black"/>
</svg>
