<svg width="29" height="21" viewBox="0 0 29 21" fill="none" xmlns="http://www.w3.org/2000/svg">
<path d="M1.61917 20.4022C0.963836 19.6961 0.855337 18.617 1.36962 17.7983C1.89259 16.9642 2.28318 16.0837 1.99675 15.0135C1.64738 13.7027 1.2047 12.4162 0.820618 11.1164C0.692589 10.6839 0.701269 10.2205 0.844488 9.79242C1.15479 8.87885 1.29801 7.88804 1.69078 7.00977C2.32441 5.59086 2.07704 4.36173 1.37396 3.201C0.881377 2.38673 0.955157 1.33413 1.59096 0.627989C2.2528 -0.109049 2.91682 -0.146563 4.26437 0.25285C4.53345 0.332291 4.81121 0.387459 5.0651 0.497794C6.76419 1.22601 8.38517 1.26352 10.0886 0.338911C10.6832 0.0167329 11.779 0.0189396 12.3324 0.376425C13.7971 1.31869 15.1251 1.31869 16.5551 0.458073C17.549 -0.139943 18.5233 -0.18187 19.4868 0.559582C20.3331 1.21277 21.2944 1.26793 22.2817 0.989888C23.0542 0.771425 23.8181 0.519861 24.5819 0.27271C25.936 -0.164217 26.6173 -0.109049 27.3096 0.698604C27.915 1.40254 27.9671 2.4441 27.4658 3.22748C26.958 4.01969 26.5414 4.8472 26.8191 5.88435C27.1815 7.23486 27.6307 8.56108 28.0235 9.90276C28.1537 10.3441 28.1407 10.8141 27.9888 11.2488C27.6871 12.1161 27.5374 13.0561 27.1577 13.8859C26.4958 15.3379 26.728 16.6067 27.4593 17.8005C27.9562 18.6126 27.8846 19.6696 27.2466 20.3736C26.5956 21.0907 25.9468 21.1393 24.6622 20.773C24.3258 20.6759 23.9786 20.6009 23.6575 20.464C22.0148 19.7645 20.4546 19.78 18.8163 20.634C18.2 20.9539 17.1041 21.0113 16.5638 20.6582C15.021 19.652 13.6235 19.7248 12.1327 20.6097C11.1909 21.168 10.2687 21.1349 9.38336 20.4618C8.49367 19.7866 7.49981 19.7535 6.47775 20.0293C5.73562 20.2301 5.00434 20.4795 4.27088 20.7156C2.95371 21.1459 2.28535 21.1194 1.61917 20.4022ZM14.4112 17.8447C17.3515 17.8447 20.294 17.8513 23.2343 17.8425C24.5342 17.8381 24.7533 17.6108 24.7555 16.2713C24.7598 12.425 24.7598 8.58094 24.7555 4.73466C24.7533 3.40843 24.4734 3.11494 23.1432 3.11274C17.3298 3.10391 11.5186 3.10612 5.70524 3.11274C4.35768 3.11494 4.08644 3.39078 4.08427 4.71921C4.07993 8.5655 4.07993 12.4096 4.08427 16.2559C4.08644 17.6527 4.27739 17.8403 5.69005 17.8425C8.59999 17.8491 11.5056 17.8447 14.4112 17.8447Z" fill="#121211"/>
</svg>
