<svg width="30" height="30" viewBox="0 0 30 30" fill="none" xmlns="http://www.w3.org/2000/svg">
<g id="GoogleDrive">
<g id="Group">
<path id="Vector" fill-rule="evenodd" clip-rule="evenodd" d="M17.8875 3.75C18.2915 3.75 18.6895 3.8479 19.0474 4.03534C19.4053 4.22278 19.7124 4.49416 19.9425 4.82625L20.0525 5L27.2688 17.5C27.4693 17.8474 27.5833 18.238 27.6012 18.6387C27.619 19.0395 27.5401 19.4386 27.3713 19.8025L27.2688 20L24.3812 25C24.1793 25.3497 23.8956 25.6453 23.5545 25.8615C23.2134 26.0776 22.825 26.2079 22.4225 26.2412L22.2175 26.25H7.78375C7.37953 26.2502 6.98129 26.1524 6.62317 25.9649C6.26504 25.7775 5.9577 25.506 5.7275 25.1737L5.61875 25L2.73125 20C2.53069 19.6526 2.41668 19.262 2.39884 18.8613C2.381 18.4605 2.45985 18.0614 2.62875 17.6975L2.73125 17.5L9.95 5C10.1521 4.65012 10.4359 4.35443 10.7773 4.13825C11.1187 3.92208 11.5073 3.79186 11.91 3.75875L12.1138 3.75H17.8875ZM24.3825 20H11.3913L9.22625 23.75H22.2175L24.3825 20ZM11.3925 7.5L4.89625 18.75L7.06125 22.5L13.5563 11.25L11.3925 7.5ZM17.8875 6.25H13.5575L20.0525 17.5H24.3825L17.8875 6.25ZM15 13.75L12.835 17.5H17.165L15 13.75Z" fill="#83787F"/>
</g>
</g>
</svg>
