<svg width="38" height="38" viewBox="0 0 38 38" fill="none" xmlns="http://www.w3.org/2000/svg">
<g id="iCloud" clip-path="url(#clip0_14_439)">
<path id="Vector" d="M19 9.5C23.1483 9.5 26.7267 12.445 27.5342 16.5142L28.0092 18.8892L30.4317 19.0633C31.6219 19.1434 32.7377 19.6713 33.5543 20.5409C34.371 21.4104 34.828 22.5571 34.8333 23.75C34.8333 26.3625 32.6958 28.5 30.0833 28.5H9.5C6.00083 28.5 3.16667 25.6658 3.16667 22.1667C3.16667 18.9208 5.58917 16.2133 8.80333 15.8808L10.4975 15.7067L11.2892 14.2025C12.0175 12.7852 13.1226 11.5962 14.4831 10.7666C15.8435 9.93689 17.4065 9.49862 19 9.5ZM19 6.33333C14.4242 6.33333 10.45 8.92999 8.47083 12.73C6.1437 12.9815 3.99159 14.0841 2.42802 15.8259C0.864454 17.5678 -0.000271861 19.826 6.41135e-08 22.1667C6.41135e-08 27.4075 4.25917 31.6667 9.5 31.6667H30.0833C34.4533 31.6667 38 28.12 38 23.75C38 19.57 34.7542 16.1817 30.6375 15.8967C30.1057 13.2014 28.6545 10.7744 26.532 9.03013C24.4095 7.28591 21.7473 6.33271 19 6.33333Z" fill="#83787F"/>
</g>
<defs>
<clipPath id="clip0_14_439">
<rect width="38" height="38" fill="white"/>
</clipPath>
</defs>
</svg>
