<svg width="26" height="26" viewBox="0 0 26 26" fill="none" xmlns="http://www.w3.org/2000/svg">
<path id="Local Files" fill-rule="evenodd" clip-rule="evenodd" d="M13 0C13.2164 0.000135215 13.43 0.0488807 13.625 0.142635C13.82 0.23639 13.9914 0.372758 14.1267 0.541667L19.9044 7.76389C20.0301 7.91103 20.1249 8.08191 20.1832 8.26639C20.2416 8.45087 20.2622 8.64519 20.244 8.83782C20.2258 9.03044 20.1691 9.21744 20.0772 9.38772C19.9853 9.55801 19.8602 9.70809 19.7092 9.82908C19.5582 9.95007 19.3844 10.0395 19.1982 10.092C19.012 10.1446 18.8172 10.1592 18.6252 10.1349C18.4332 10.1107 18.2481 10.0482 18.0808 9.95105C17.9134 9.85391 17.7673 9.72414 17.6511 9.56944L14.4444 5.56111V15.8889C14.4444 16.272 14.2923 16.6394 14.0214 16.9103C13.7505 17.1812 13.3831 17.3333 13 17.3333C12.6169 17.3333 12.2495 17.1812 11.9786 16.9103C11.7077 16.6394 11.5556 16.272 11.5556 15.8889V5.56111L8.34889 9.57089C8.23268 9.72558 8.08657 9.85535 7.91924 9.9525C7.75191 10.0496 7.56677 10.1122 7.37481 10.1364C7.18285 10.1606 6.98798 10.146 6.80176 10.0935C6.61555 10.0409 6.44179 9.95151 6.2908 9.83052C6.13981 9.70954 6.01466 9.55945 5.92279 9.38917C5.83092 9.21889 5.7742 9.03189 5.75599 8.83926C5.73778 8.64664 5.75845 8.45232 5.81678 8.26784C5.87511 8.08335 5.96991 7.91247 6.09556 7.76533L11.8733 0.543111C12.0084 0.373938 12.1798 0.237295 12.3748 0.143286C12.5699 0.0492777 12.7835 0.000308536 13 0ZM8.66667 15.8889V14.4444H2.88889C2.12271 14.4444 1.38791 14.7488 0.846136 15.2906C0.304364 15.8324 0 16.5672 0 17.3333V23.1111C0 23.8773 0.304364 24.6121 0.846136 25.1539C1.38791 25.6956 2.12271 26 2.88889 26H23.1111C23.8773 26 24.6121 25.6956 25.1539 25.1539C25.6956 24.6121 26 23.8773 26 23.1111V17.3333C26 16.5672 25.6956 15.8324 25.1539 15.2906C24.6121 14.7488 23.8773 14.4444 23.1111 14.4444H17.3333V15.8889C17.3333 17.0382 16.8768 18.1404 16.0641 18.953C15.2515 19.7657 14.1493 20.2222 13 20.2222C11.8507 20.2222 10.7485 19.7657 9.93587 18.953C9.12321 18.1404 8.66667 17.0382 8.66667 15.8889ZM20.2222 18.7778C19.8391 18.7778 19.4717 18.93 19.2008 19.2008C18.93 19.4717 18.7778 19.8391 18.7778 20.2222C18.7778 20.6053 18.93 20.9727 19.2008 21.2436C19.4717 21.5145 19.8391 21.6667 20.2222 21.6667H20.2367C20.6198 21.6667 20.9872 21.5145 21.258 21.2436C21.5289 20.9727 21.6811 20.6053 21.6811 20.2222C21.6811 19.8391 21.5289 19.4717 21.258 19.2008C20.9872 18.93 20.6198 18.7778 20.2367 18.7778H20.2222Z" fill="#83787F"/>
</svg>
