<svg width="24" height="24" viewBox="0 0 24 24" fill="none" xmlns="http://www.w3.org/2000/svg">
<g id="Logga">
<path id="Logga_2" d="M7.128 13.159C6.38104 13.427 5.76262 13.9669 5.39616 14.6708C5.0297 15.3747 4.94216 16.1909 5.151 16.9565C5.25864 17.3618 5.44572 17.7416 5.7014 18.0739C5.95707 18.4063 6.27624 18.6845 6.64035 18.8924C7.00446 19.1004 7.40626 19.2339 7.82241 19.2852C8.23856 19.3366 8.66077 19.3047 9.0645 19.1915C9.827 18.9285 10.494 18.4115 10.95 17.214C11.4065 16.0165 11.4755 13.519 11.3685 10.938C11.2635 8.395 10.7145 7.418 10.127 6.403C9.315 5.0015 7.335 4 5.7135 4C5.2259 3.99993 4.74307 4.09591 4.29256 4.28244C3.84205 4.46898 3.4327 4.74242 3.08787 5.08716C2.74304 5.4319 2.46948 5.84118 2.28283 6.29163C2.09617 6.74209 2.00007 7.2249 2 7.7125C2 9.2975 3.0285 11.161 4.3945 12.007C6.196 13.123 8.1195 13.187 10.069 14.317C10.781 14.7295 11.103 15.6345 11.1235 16.463M16.372 13.159C17.119 13.427 17.7374 13.9669 18.1038 14.6708C18.4703 15.3747 18.5578 16.1909 18.349 16.9565C18.2414 17.3618 18.0543 17.7416 17.7986 18.0739C17.5429 18.4063 17.2238 18.6845 16.8597 18.8924C16.4955 19.1004 16.0937 19.2339 15.6776 19.2852C15.2614 19.3366 14.8392 19.3047 14.4355 19.1915C13.673 18.9285 13.006 18.4115 12.55 17.214C12.0935 16.0165 12.0245 13.519 12.1315 10.938C12.2365 8.395 12.7855 7.418 13.373 6.403C14.185 5.0015 16.165 4 17.7865 4C18.2741 3.99993 18.7569 4.09591 19.2074 4.28244C19.6579 4.46898 20.0673 4.74242 20.4121 5.08716C20.757 5.4319 21.0305 5.84118 21.2172 6.29163C21.4038 6.74209 21.4999 7.2249 21.5 7.7125C21.5 9.2975 20.4715 11.161 19.1055 12.007C17.304 13.123 15.3805 13.187 13.431 14.317C12.719 14.7295 12.397 15.6345 12.3765 16.463" stroke="black" stroke-width="0.5" stroke-linecap="round" stroke-linejoin="round"/>
</g>
</svg>
