<svg width="22" height="20" viewBox="0 0 22 20" fill="none" xmlns="http://www.w3.org/2000/svg">
<path id="Vector" d="M21.2507 3.4768C21.4284 3.55344 21.5798 3.68047 21.6861 3.8422C21.7925 4.00392 21.8491 4.19325 21.849 4.3868V15.6132C21.8483 15.8064 21.7913 15.9953 21.6848 16.1565C21.5783 16.3177 21.427 16.4443 21.2496 16.5208C21.0721 16.5973 20.8762 16.6202 20.6859 16.5869C20.4956 16.5535 20.3191 16.4653 20.1782 16.333L14.2348 10.7198C14.1369 10.6272 14.0589 10.5156 14.0056 10.3919C13.9523 10.2681 13.9248 10.1348 13.9248 10C13.9248 9.86524 13.9523 9.7319 14.0056 9.60813C14.0589 9.48436 14.1369 9.37277 14.2348 9.28019L20.1782 3.66699C20.3189 3.53397 20.4954 3.44506 20.686 3.41126C20.8766 3.37746 21.0729 3.40025 21.2507 3.4768ZM0.716919 15.6132V4.3868C0.717573 4.19357 0.774648 4.00475 0.881135 3.84352C0.987623 3.68228 1.13888 3.55567 1.31634 3.47921C1.49379 3.40276 1.68972 3.3798 1.88004 3.41316C2.07036 3.44652 2.2468 3.53474 2.38767 3.66699L8.33107 9.28019C8.429 9.37277 8.507 9.48436 8.56032 9.60813C8.61363 9.7319 8.64113 9.86524 8.64113 10C8.64113 10.1348 8.61363 10.2681 8.56032 10.3919C8.507 10.5156 8.429 10.6272 8.33107 10.7198L2.38767 16.333C2.24701 16.4659 2.07053 16.5546 1.88 16.5883C1.68947 16.622 1.49324 16.5992 1.31555 16.5226C1.13785 16.4461 0.986466 16.3192 0.880083 16.1575C0.773701 15.9959 0.716978 15.8067 0.716919 15.6132ZM2.69805 6.68491V13.3151L6.20862 10L2.69805 6.68491ZM16.3573 10L19.8679 13.3151V6.68491L16.3573 10ZM11.283 4.71699C11.5457 4.71699 11.7976 4.82135 11.9834 5.00712C12.1692 5.19288 12.2735 5.44484 12.2735 5.70755V6.36793C12.2735 6.63064 12.1692 6.8826 11.9834 7.06837C11.7976 7.25413 11.5457 7.3585 11.283 7.3585C11.0202 7.3585 10.7683 7.25413 10.5825 7.06837C10.3968 6.8826 10.2924 6.63064 10.2924 6.36793V5.70755C10.2924 5.44484 10.3968 5.19288 10.5825 5.00712C10.7683 4.82135 11.0202 4.71699 11.283 4.71699ZM12.2735 1.74529V2.40567C12.2735 2.66838 12.1692 2.92033 11.9834 3.1061C11.7976 3.29187 11.5457 3.39623 11.283 3.39623C11.0202 3.39623 10.7683 3.29187 10.5825 3.1061C10.3968 2.92033 10.2924 2.66838 10.2924 2.40567V1.74529C10.2924 1.48257 10.3968 1.23062 10.5825 1.04485C10.7683 0.859086 11.0202 0.754723 11.283 0.754723C11.5457 0.754723 11.7976 0.859086 11.9834 1.04485C12.1692 1.23062 12.2735 1.48257 12.2735 1.74529ZM12.2735 9.66982V10.3302C12.2735 10.5929 12.1692 10.8449 11.9834 11.0306C11.7976 11.2164 11.5457 11.3208 11.283 11.3208C11.0202 11.3208 10.7683 11.2164 10.5825 11.0306C10.3968 10.8449 10.2924 10.5929 10.2924 10.3302V9.66982C10.2924 9.4071 10.3968 9.15515 10.5825 8.96938C10.7683 8.78361 11.0202 8.67925 11.283 8.67925C11.5457 8.67925 11.7976 8.78361 11.9834 8.96938C12.1692 9.15515 12.2735 9.4071 12.2735 9.66982ZM11.283 12.6415C11.5457 12.6415 11.7976 12.7459 11.9834 12.9316C12.1692 13.1174 12.2735 13.3694 12.2735 13.6321V14.2925C12.2735 14.5552 12.1692 14.8071 11.9834 14.9929C11.7976 15.1787 11.5457 15.283 11.283 15.283C11.0202 15.283 10.7683 15.1787 10.5825 14.9929C10.3968 14.8071 10.2924 14.5552 10.2924 14.2925V13.6321C10.2924 13.3694 10.3968 13.1174 10.5825 12.9316C10.7683 12.7459 11.0202 12.6415 11.283 12.6415ZM11.283 16.6038C11.5457 16.6038 11.7976 16.7081 11.9834 16.8939C12.1692 17.0797 12.2735 17.3316 12.2735 17.5943V18.2547C12.2735 18.5174 12.1692 18.7694 11.9834 18.9552C11.7976 19.1409 11.5457 19.2453 11.283 19.2453C11.0202 19.2453 10.7683 19.1409 10.5825 18.9552C10.3968 18.7694 10.2924 18.5174 10.2924 18.2547V17.5943C10.2924 17.3316 10.3968 17.0797 10.5825 16.8939C10.7683 16.7081 11.0202 16.6038 11.283 16.6038Z" fill="black"/>
</svg>
