<svg width="19" height="22" viewBox="0 0 19 22" fill="none" xmlns="http://www.w3.org/2000/svg">
<path id="Vector" d="M3.13711 1.03227C3.21376 0.854543 3.34079 0.703165 3.50251 0.596836C3.66424 0.490506 3.85357 0.433885 4.04711 0.433966H15.2735C15.4668 0.434619 15.6556 0.491695 15.8168 0.598182C15.978 0.704669 16.1047 0.855931 16.1811 1.03339C16.2576 1.21084 16.2805 1.40676 16.2472 1.59709C16.2138 1.78741 16.1256 1.96384 15.9933 2.10472L10.3801 8.04812C10.2876 8.14604 10.176 8.22405 10.0522 8.27736C9.92843 8.33067 9.79508 8.35817 9.66032 8.35817C9.52556 8.35817 9.39221 8.33067 9.26845 8.27736C9.14468 8.22405 9.03309 8.14604 8.94051 8.04812L3.3273 2.10472C3.19428 1.9641 3.10538 1.78758 3.07158 1.59698C3.03778 1.40638 3.06056 1.21006 3.13711 1.03227ZM15.2735 21.566H4.04711C3.85389 21.5654 3.66507 21.5083 3.50383 21.4018C3.3426 21.2953 3.21598 21.1441 3.13953 20.9666C3.06308 20.7892 3.04012 20.5932 3.07348 20.4029C3.10683 20.2126 3.19506 20.0362 3.3273 19.8953L8.94051 13.9519C9.03309 13.854 9.14468 13.776 9.26845 13.7226C9.39221 13.6693 9.52556 13.6418 9.66032 13.6418C9.79508 13.6418 9.92843 13.6693 10.0522 13.7226C10.176 13.776 10.2876 13.854 10.3801 13.9519L15.9933 19.8953C16.1262 20.0359 16.215 20.2124 16.2487 20.403C16.2824 20.5935 16.2595 20.7897 16.183 20.9674C16.1064 21.1451 15.9795 21.2965 15.8179 21.4029C15.6562 21.5093 15.467 21.566 15.2735 21.566ZM6.34523 19.5849H12.9754L9.66032 16.0743L6.34523 19.5849ZM9.66032 5.92566L12.9754 2.4151H6.34523L9.66032 5.92566ZM4.3773 11C4.3773 10.7373 4.48167 10.4853 4.66743 10.2996C4.8532 10.1138 5.10515 10.0094 5.36787 10.0094H6.02825C6.29096 10.0094 6.54292 10.1138 6.72868 10.2996C6.91445 10.4853 7.01881 10.7373 7.01881 11C7.01881 11.2627 6.91445 11.5147 6.72868 11.7004C6.54292 11.8862 6.29096 11.9906 6.02825 11.9906H5.36787C5.10515 11.9906 4.8532 11.8862 4.66743 11.7004C4.48167 11.5147 4.3773 11.2627 4.3773 11ZM1.40561 10.0094H2.06598C2.3287 10.0094 2.58065 10.1138 2.76642 10.2996C2.95219 10.4853 3.05655 10.7373 3.05655 11C3.05655 11.2627 2.95219 11.5147 2.76642 11.7004C2.58065 11.8862 2.3287 11.9906 2.06598 11.9906H1.40561C1.14289 11.9906 0.890936 11.8862 0.705169 11.7004C0.519402 11.5147 0.415039 11.2627 0.415039 11C0.415039 10.7373 0.519402 10.4853 0.705169 10.2996C0.890936 10.1138 1.14289 10.0094 1.40561 10.0094ZM9.33013 10.0094H9.99051C10.2532 10.0094 10.5052 10.1138 10.6909 10.2996C10.8767 10.4853 10.9811 10.7373 10.9811 11C10.9811 11.2627 10.8767 11.5147 10.6909 11.7004C10.5052 11.8862 10.2532 11.9906 9.99051 11.9906H9.33013C9.06742 11.9906 8.81546 11.8862 8.6297 11.7004C8.44393 11.5147 8.33957 11.2627 8.33957 11C8.33957 10.7373 8.44393 10.4853 8.6297 10.2996C8.81546 10.1138 9.06742 10.0094 9.33013 10.0094ZM12.3018 11C12.3018 10.7373 12.4062 10.4853 12.592 10.2996C12.7777 10.1138 13.0297 10.0094 13.2924 10.0094H13.9528C14.2155 10.0094 14.4674 10.1138 14.6532 10.2996C14.839 10.4853 14.9433 10.7373 14.9433 11C14.9433 11.2627 14.839 11.5147 14.6532 11.7004C14.4674 11.8862 14.2155 11.9906 13.9528 11.9906H13.2924C13.0297 11.9906 12.7777 11.8862 12.592 11.7004C12.4062 11.5147 12.3018 11.2627 12.3018 11ZM16.2641 11C16.2641 10.7373 16.3685 10.4853 16.5542 10.2996C16.74 10.1138 16.9919 10.0094 17.2547 10.0094H17.915C18.1778 10.0094 18.4297 10.1138 18.6155 10.2996C18.8012 10.4853 18.9056 10.7373 18.9056 11C18.9056 11.2627 18.8012 11.5147 18.6155 11.7004C18.4297 11.8862 18.1778 11.9906 17.915 11.9906H17.2547C16.9919 11.9906 16.74 11.8862 16.5542 11.7004C16.3685 11.5147 16.2641 11.2627 16.2641 11Z" fill="black"/>
</svg>
