<svg width="30" height="30" viewBox="0 0 30 30" fill="none" xmlns="http://www.w3.org/2000/svg">
<path id="Vector" d="M4.9032 19.7642H25.2263C28.2284 19.7642 29.8225 18.2321 29.8225 15.2293V4.78217C29.8225 1.77943 28.2284 0.246696 25.2263 0.246696H4.90254C2.03915 0.246696 0.290466 1.77877 0.290466 4.78217V15.2293C0.290466 18.2321 1.88462 19.7642 4.90254 19.7642M4.8715 17.4423C3.49396 17.4423 2.78207 16.7152 2.78207 15.3528V4.65802C2.78207 3.29632 3.49396 2.58443 4.8715 2.58443H25.2554C26.6177 2.58443 27.3296 3.29632 27.3296 4.65802V15.3528C27.3296 16.7152 26.6177 17.4423 25.256 17.4423H4.8715ZM20.4419 29.3753C22.0519 29.3753 23.4294 28.3385 23.9399 26.8989H28.6451C29.2797 26.8989 29.8212 26.3574 29.8212 25.6613C29.8212 24.9494 29.2797 24.4073 28.6451 24.4073H23.9399C23.6819 23.6864 23.2072 23.063 22.5809 22.6225C21.9547 22.182 21.2075 21.9459 20.4419 21.9467C19.6747 21.9476 18.9264 22.184 18.298 22.6241C17.6697 23.0642 17.1917 23.6866 16.9287 24.4073H1.54452C0.847825 24.4073 0.291127 24.9488 0.291127 25.6613C0.291127 26.3574 0.847825 26.8995 1.54452 26.8995H16.9293C17.1897 27.6231 17.6666 28.249 18.2952 28.6921C18.9238 29.1351 19.6735 29.3739 20.4425 29.3759M20.4425 27.4727C20.2041 27.475 19.9676 27.4298 19.7469 27.3396C19.5262 27.2494 19.3256 27.1161 19.157 26.9475C18.9884 26.7789 18.8551 26.5784 18.7649 26.3576C18.6748 26.1369 18.6295 25.9004 18.6318 25.662C18.6318 24.6252 19.4209 23.8354 20.4425 23.8354C21.4641 23.8354 22.2533 24.6245 22.2533 25.662C22.2556 25.9004 22.2103 26.1369 22.1201 26.3576C22.0299 26.5784 21.8967 26.7789 21.7281 26.9475C21.5594 27.1161 21.3589 27.2494 21.1382 27.3396C20.9175 27.4298 20.681 27.475 20.4425 27.4727Z" fill="black"/>
</svg>
