<svg width="41" height="40" viewBox="0 0 41 40" fill="none" xmlns="http://www.w3.org/2000/svg">
<rect x="0.86792" y="0.00131989" width="39.62" height="39.62" rx="3" fill="#D2B7C9"/>
<path d="M4.42551 24.8113L8.61853 16.5191V16.4487H3.76888V15.2058H10.1194V16.4909L5.94043 24.8113H4.42551ZM14.8881 24.9708C14.1471 24.9677 13.5139 24.7722 12.9886 24.3845C12.4633 23.9968 12.0615 23.4324 11.7832 22.6914C11.5049 21.9503 11.3658 21.0576 11.3658 20.0133C11.3658 18.972 11.5049 18.0825 11.7832 17.3446C12.0646 16.6066 12.468 16.0438 12.9933 15.6561C13.5217 15.2684 14.1533 15.0745 14.8881 15.0745C15.6229 15.0745 16.253 15.2699 16.7783 15.6608C17.3036 16.0485 17.7054 16.6113 17.9836 17.3492C18.2651 18.084 18.4058 18.972 18.4058 20.0133C18.4058 21.0607 18.2666 21.955 17.9883 22.696C17.71 23.434 17.3083 23.9984 16.783 24.3892C16.2577 24.7769 15.626 24.9708 14.8881 24.9708ZM14.8881 23.7185C15.5385 23.7185 16.0466 23.4011 16.4124 22.7664C16.7814 22.1317 16.9659 21.2139 16.9659 20.0133C16.9659 19.2159 16.8815 18.5421 16.7126 17.9918C16.5469 17.4384 16.3077 17.0194 15.995 16.7348C15.6855 16.4472 15.3165 16.3033 14.8881 16.3033C14.2409 16.3033 13.7328 16.6223 13.3638 17.2601C12.9949 17.898 12.8088 18.8157 12.8057 20.0133C12.8057 20.8137 12.8885 21.4907 13.0543 22.0441C13.2231 22.5944 13.4623 23.0119 13.7719 23.2964C14.0814 23.5778 14.4535 23.7185 14.8881 23.7185ZM23.5837 27.5129V17.6072H24.9532V18.7751H25.0705C25.1518 18.625 25.2691 18.4514 25.4223 18.2544C25.5755 18.0575 25.7881 17.8855 26.0601 17.7385C26.3322 17.5884 26.6917 17.5134 27.1389 17.5134C27.7205 17.5134 28.2395 17.6604 28.696 17.9543C29.1525 18.2482 29.5105 18.6719 29.7701 19.2253C30.0327 19.7788 30.164 20.4448 30.164 21.2233C30.164 22.0019 30.0343 22.6695 29.7748 23.226C29.5152 23.7795 29.1588 24.2063 28.7054 24.5065C28.252 24.8035 27.7345 24.952 27.1529 24.952C26.7152 24.952 26.3572 24.8785 26.0789 24.7316C25.8037 24.5846 25.588 24.4127 25.4316 24.2157C25.2753 24.0187 25.1549 23.8436 25.0705 23.6904H24.9861V27.5129H23.5837ZM24.9579 21.2093C24.9579 21.7158 25.0314 22.1598 25.1784 22.5413C25.3253 22.9227 25.538 23.2213 25.8162 23.4371C26.0945 23.6497 26.4353 23.756 26.8387 23.756C27.2577 23.756 27.6079 23.645 27.8893 23.423C28.1707 23.1979 28.3833 22.893 28.5272 22.5084C28.6741 22.1238 28.7476 21.6908 28.7476 21.2093C28.7476 20.734 28.6757 20.3072 28.5319 19.9288C28.3912 19.5505 28.1785 19.2519 27.894 19.033C27.6126 18.8141 27.2608 18.7047 26.8387 18.7047C26.4322 18.7047 26.0883 18.8095 25.8069 19.0189C25.5286 19.2284 25.3175 19.5208 25.1737 19.896C25.0299 20.2712 24.9579 20.709 24.9579 21.2093ZM32.5584 17.6072L34.1483 20.4119L35.7524 17.6072H37.2861L35.0395 21.2093L37.3048 24.8113H35.7711L34.1483 22.1192L32.5302 24.8113H30.9919L33.2338 21.2093L31.02 17.6072H32.5584Z" fill="black"/>
</svg>
