<svg width="37" height="37" viewBox="0 0 37 37" fill="none" xmlns="http://www.w3.org/2000/svg">
<g id="la:tint">
<path id="Vector" d="M18.4338 4.67907L17.5552 5.73319C17.5552 5.73319 15.3052 8.44444 13.0203 11.8149C11.8773 13.5024 10.6995 15.3441 9.82084 17.1238C8.94221 18.9036 8.30884 20.6091 8.30884 22.1863C8.30884 27.7494 12.8707 32.3113 18.4338 32.3113C23.997 32.3113 28.5588 27.7494 28.5588 22.1863C28.5588 20.6091 27.9255 18.9036 27.0468 17.1238C26.1682 15.3441 24.9903 13.5024 23.8485 11.8149C21.5625 8.44444 19.3125 5.73319 19.3125 5.73319L18.4338 4.67907ZM18.4338 8.29932C19.0627 9.07782 20.2395 10.4571 22.0203 13.0806C23.1273 14.7118 24.1995 16.5084 25.0083 18.1431C25.8161 19.7788 26.3088 21.2897 26.3088 22.1863C26.3088 26.5232 22.7707 30.0613 18.4338 30.0613C14.097 30.0613 10.5588 26.5232 10.5588 22.1863C10.5588 21.2897 11.0516 19.7788 11.8593 18.1431C12.6682 16.5084 13.7403 14.7118 14.8473 13.0806C16.6282 10.4571 17.8061 9.07782 18.4338 8.29932ZM12.8088 22.1863C12.8088 25.2756 15.3446 27.8113 18.4338 27.8113V25.5613C17.5387 25.5613 16.6803 25.2057 16.0474 24.5728C15.4144 23.9399 15.0588 23.0814 15.0588 22.1863H12.8088Z" fill="black"/>
</g>
</svg>
